<svg xmlns="http://www.w3.org/2000/svg" xmlns:xlink="http://www.w3.org/1999/xlink" width="180px" height="180px" viewBox="0 0 180 180">

<g fill="none" stroke="#333" stroke-width="1.5">

	<path id="h" d="M20,20c0,0,20-4,20,0c0,10,8-10,10,0s8-10,10,0s10-10,10,0c0,4,20,0,20,0"/>

	<use xlink:href="#h" x="0" y="70"/>
	<use xlink:href="#h" x="0" y="140"/>
	<use xlink:href="#h" x="70" y="0"/>
	<use xlink:href="#h" x="70" y="70"/>
	<use xlink:href="#h" x="70" y="140"/>

	<use id="v" xlink:href="#h" transform="rotate(90 20 20)"/>

	<use xlink:href="#v" x="70" y="0"/>
	<use xlink:href="#v" x="140" y="0"/>
	<use xlink:href="#v" x="0" y="70"/>
	<use xlink:href="#v" x="70" y="70"/>
	<use xlink:href="#v" x="140" y="70"/>

</g>

<g fill="none" stroke="#777" stroke-width="1.5">

	<g id="x">
		<path id="d" d="M20,20c0,0,17,12,15,15c-6,9,14-1,8,8s14-1,8,8s14-1,8,8s14-1,8,8s14-1,8,8c-2,3,15,15,15,15"/>
		<use xlink:href="#d" transform="rotate(90 55 55)"/>
	</g>

	<use xlink:href="#x" x="0" y="70"/>
	<use xlink:href="#x" x="70" y="0"/>
	<use xlink:href="#x" x="70" y="70"/>

</g>

<g fill="#EEE" stroke="#333" stroke-width="2">

	<circle r="9" cx="20" cy="20"/>
	<circle r="9" cx="90" cy="20"/>
	<circle r="9" cx="160" cy="20"/>
	<circle r="9" cx="20" cy="90"/>
	<circle r="9" cx="90" cy="90"/>
	<circle r="9" cx="160" cy="90"/>
	<circle r="9" cx="20" cy="160"/>
	<circle r="9" cx="90" cy="160"/>
	<circle r="9" cx="160" cy="160"/>

</g>

</svg>
