<svg xmlns="http://www.w3.org/2000/svg" width="580px" height="420px" viewBox="0 0 580 420" font-size="16px" font-weight="bold" font-family="Tahoma, sans-serif">

<g fill="none" stroke="#000" stroke-width="3" stroke-linecap="round">

	<circle stroke-width="5" cx="330" cy="120" r="19"/>
	<circle stroke-width="5" cx="330" cy="315" r="19"/>

	<path d="M46,61L283,102M46,256L283,297M309,99L274,64M330,90L330,40M351,99L386,64M360,120L410,120M351,141L386,176M330,150L330,200M309,141L274,176M300,120L250,120M309,294L300,285M330,285L330,255M351,294L395,250M358,303L478,266M360,315L530,315M358,327L478,364M351,336L395,380M330,345L330,375M309,336L300,345M300,315L289,315"/>

</g>

<path d="M278.5,110.4l19.3-5.8l-16.2-11.9zM297.8,299.6l-16.2-11.9l-3.1,17.7zM282.5,59.8l-19.1-6.4l6.4,19.1zM321,43h18l-9-18zM396.6,53.4l-19.1,6.4l12.7,12.7zM407,129l18-9l-18-9zM390.2,167.5l-12.7,12.7l19.1,6.4zM330,215l9-18h-18zM269.8,167.5l-6.4,19.1l19.1-6.4zM253,129v-18l-18,9zM295.8,293.5l12.7-12.7l-19.1-6.4zM321,258h18l-9-18zM399.2,258.5l6.4-19.1l-19.1,6.4zM477.8,275.5l14.5-13.9l-19.9-3.3zM527,306v18l18-9zM472.5,371.7l19.9-3.3l-14.5-13.9zM386.5,384.2l19.1,6.4l-6.4-19.1zM330,390l9-18h-18zM289.4,355.6l19.1-6.4l-12.7-12.7zM292,306l-18,9l18,9z"/>

<text x="50" y="145">Isotropic scattering</text>
<text x="50" y="340">Anisotropic scattering</text>

</svg>
