<svg xmlns="http://www.w3.org/2000/svg" xmlns:xlink="http://www.w3.org/1999/xlink" width="460px" height="180px" viewBox="0 0 460 180" stroke-linecap="round">

<g fill="#F8F8F8" stroke="#282828" stroke-width="4">
	<path id="a" d="M43.31,129.12c-14.98-25.79-6.22-58.84,19.57-73.82q42-9,76.52,24.88c4.37,9.9,5.53,20.4,3.93,30.34"/>
	<path id="b" d="M61.17,56.36c6.62-3.45,1.63-12.13,8.6-14.55c7.07-1.83,7.76,8.2,14.8,7.41c7.04-0.23,6.22-10.22,13.29-9.48c6.99,1.26,3.5,10.66,10.14,12.8c6.46,2.63,9.83-6.81,15.99-3.28c5.89,3.98-1.16,11.11,4.09,15.81c4.89,5.13,11.86-2.11,16.1,3.83c3.79,6.33-5.62,9.78-2.76,16.68"/>
</g>

<g fill="#DCDCDC" stroke="#767676" stroke-width="2.5">
	<use xlink:href="#a" x="140"/>
	<use xlink:href="#b" x="140"/>
	<path stroke="#FFFFFF" stroke-width="3.5" d="M210,56h.5m27.5-5h0.5M198,71h0.5m27.5-5h0.5m27.5-5h0.5M186,86h0.5m27.5-5h0.5m27.5-5h0.5m27.5-5h0.5M202,96h0.5m27.5-5h0.5m27.5-5h0.5M190,110h0.5m27.5-5h0.5m27.5-5h0.5m27.5-5h0.5M206,119h0.5m27.5-5h0.5m27.5-5h0.5"/>
</g>

<g fill="#F8F8F8" stroke-width="2.5">
	<use stroke="#767676" xlink:href="#a" x="280"/>
	<use stroke="#282828" stroke-width="4" xlink:href="#b" x="280"/>
</g>

<text fill="#282828" font-size="14px" font-weight="bold" font-family="Arial, sans-serif" y="155">
	<tspan x="65">Surface</tspan>
	<tspan x="204">Volume</tspan>
	<tspan x="325">Displacement</tspan>
</text>

</svg>
