<svg xmlns="http://www.w3.org/2000/svg" width="1024px" height="600px">
	<path fill="#E4DFDD" d="M958.37,295L436.84,53.68l-20.45-0.07l-58.87,25.28l0.16,12.96l-5.9,2.53l-14.6-6.75l-47.86,20.55l0.16,12.96l-4.7,2.02l-14.6-6.75l-69.4,29.8l0.16,12.96l-4.7,2.02l-14.6-6.75l-47.86,20.55l0.16,12.96l-5.9,2.53l-14.6-6.75l-59.59,25.63l1.3,106.52l521.53,241.32l20.46,0.07l37.33-16.03l-0.87-71.85l28.8-12.37l80.95,37.46l69.4-29.8l-0.87-71.85l28.8-12.37l80.95,37.46l38.04-16.29zM158.33,308.04l-0.35-28.91l124.19,57.46l0.16,12.96l0.19,15.95zM595.65,201.96l-5.9,2.53l-96.45-44.63l-0.06-5.29zM369.48,158.16l10.7,4.95l0.05,4.22l-15.45-7.15zM336.49,221.89l102.41,47.39l-4.7,2.02l-97.66-45.19zM396.31,418.15l-0.35-28.91l124.19,57.46l0.35,28.91zM672.19,381.42l-97.66-45.19l-0.05-4.22l102.41,47.39zM827.74,314.62l-96.45-44.63l-0.06-5.29l102.41,47.39z"/>
	<path fill="none" stroke="#000" stroke-width="1.5" stroke-linecap="round" stroke-linejoin="round" d="M417.19,124.65l5.9-2.53M444.92,137.48l-0.06-5.29M354.89,151.4l-4.7,2.02M431.79,131.4l5.9-2.53M364.78,160.18l4.7-2.02M261.64,191.45l4.7-2.02M493.24,154.58l0.06,5.29M589.75,204.5l5.9-2.53M380.23,167.33l-0.05-4.22M661.07,232.23l-5.9,2.53M357.67,91.85l541.38,250.51l-0.16-12.96M289.47,121.13l541.38,250.51l-0.16-12.96M208.03,227.49l5.9-2.53M199.34,218.2l-5.9,2.53M682.91,247.6l-0.06-5.29M276.24,198.2l4.7-2.02M675.67,238.99l-5.9,2.53M592.87,261.52l-4.7,2.02M522.75,233.27l4.7-2.02M336.49,221.89l0.05,4.22M434.2,271.3l4.7-2.02M280.29,255.66l-5.9,2.53M267.13,254.84l-0.06-5.29M731.22,264.7l0.06,5.29M133.92,187.93L675.3,438.44l-0.16-12.96M200.92,159.16l541.38,250.51l-0.16-12.96M607.47,268.28l-4.7,2.02M499.62,301.57l4.7-2.02M518.92,306.3l-4.7,2.02M157.98,279.13l0.35,28.91l124.19,57.46M366,300.58l5.9-2.53M289.31,108.18l541.38,250.51l47.86-20.55M833.64,312.08l-5.9,2.53M446.02,337.61l5.9-2.53M431.42,330.85l5.9-2.53M878.71,351.09l-0.16-12.96L337.17,87.63l-47.86,20.55l0.16,12.96l-4.7,2.02M574.48,332.01l0.05,4.22M811.71,379.86l-0.15-12.88l0-0.07L270.17,116.4l-69.4,29.8l0.16,12.96l-4.7,2.02M609.88,408.17l-5.9,2.53M200.77,146.2l541.38,250.51l69.32-29.77M765.43,341.37l-4.7,2.02M512.37,368.31l5.9-2.53M920.75,346.06l0.87,71.85M54.26,244.02l55.49,25.68l14.44-6.2M54.97,302.91L576.5,544.23l20.46,0.07l37.33-16.03M109.6,256.74l0.87,71.85l47.86-20.55M505.12,364.96l-0.06-5.29M357.52,78.89L898.9,329.4l59.58-25.59M840.66,380.45l80.95,37.46l38.04-16.29L958.37,295L436.84,53.68l-20.45-0.07l-58.87,25.28l0.16,12.96l-5.9,2.53M855.11,374.25l66.35,30.7l38.04-16.33M133.76,174.98l541.38,250.51l47.86-20.55M723.16,417.89l-0.16-12.96L181.62,154.42l-47.86,20.55l0.16,12.96l-5.9,2.53M676.89,379.4l-4.7,2.02M283.03,408.44l-0.87-71.85M347.58,366.86l0.87,71.85l47.86-20.55M395.96,389.24l0.35,28.91l124.19,57.46M282.32,349.55l65.42,30.27l14.44-6.2M53.95,218.11l521.53,241.32l20.46,0.07l58.87-25.28M54.1,231.06l521.53,241.32l20.46,0.07l362.54-155.69M520.14,446.71l0.87,71.85M654.96,447.18l-0.16-12.96L113.42,183.71l-59.59,25.63l1.3,106.52l521.53,241.32l20.46,0.07l37.33-16.03l-0.87-71.85M743.33,494.47l-0.87-71.85M662.38,457.01l80.95,37.46l69.4-29.8l-0.87-71.85M676.82,450.81l66.36,30.7l69.4-29.8M520.3,459.66l55.49,25.68l20.45,0.07l362.54-155.69"/>
</svg>