<svg xmlns="http://www.w3.org/2000/svg" width="580px" height="460px" viewBox="0 0 580 460">

<path fill="none" stroke="#A0A0A0" stroke-width="2" d="M90,35V95M90,155V215M90,275V335M260,35V65M260,155V185M260,275V305M90,65H360V425H90M90,185H360M90,305H360M90,385H360M360,245H490"/>

<g fill="#E9AFAF">
	<rect x="20" y="20" width="140" height="30" rx="6"/>
	<rect x="20" y="80" width="140" height="30" rx="6"/>
	<rect x="190" y="20" width="140" height="30" rx="6"/>
</g>

<g fill="#DDE9AF">
	<rect x="20" y="140" width="140" height="30" rx="6"/>
	<rect x="20" y="200" width="140" height="30" rx="6"/>
	<rect x="190" y="140" width="140" height="30" rx="6"/>
</g>

<g fill="#AFC6E9">
	<rect x="20" y="260" width="140" height="30" rx="6"/>
	<rect x="20" y="320" width="140" height="30" rx="6"/>
	<rect x="190" y="260" width="140" height="30" rx="6"/>
</g>

<rect fill="#FFE680" x="20" y="370" width="140" height="30" rx="6"/>
<rect fill="#E9AFDD" x="20" y="410" width="140" height="30" rx="6"/>
<rect fill="#C8C8C8" x="420" y="230" width="140" height="30" rx="6"/>

<g fill="#C8C8C8">
	<circle cx="90" cy="65" r="10"/>
	<circle cx="90" cy="185" r="10"/>
	<circle cx="90" cy="305" r="10"/>
	<circle cx="260" cy="65" r="10"/>
	<circle cx="260" cy="185" r="10"/>
	<circle cx="260" cy="305" r="10"/>
	<circle cx="390" cy="245" r="10"/>
</g>

<g font-size="12px" font-family="Tahoma, sans-serif" text-anchor="middle">

	<g font-size="18px">
		<text x="90" y="70">+</text>
		<text x="260" y="70">×</text>
		<text x="90" y="190">+</text>
		<text x="260" y="190">×</text>
		<text x="90" y="310">+</text>
		<text x="260" y="310">×</text>
		<text x="390" y="250">+</text>
	</g>

	<text x="90" y="39">Diffuse Direct</text>
	<text x="90" y="99">Diffuse Indirect</text>
	<text x="260" y="39">Diffuse Color</text>

	<text x="90" y="159">Glossy Direct</text>
	<text x="90" y="219">Glossy Indirect</text>
	<text x="260" y="159">Glossy Color</text>

	<text x="90" y="279">Transmission Direct</text>
	<text x="90" y="339">Transmission Indirect</text>
	<text x="260" y="279">Transmission Color</text>

	<text x="90" y="389">Emission</text>
	<text x="90" y="429">Environment</text>
	<text x="490" y="249">Combined</text>

</g>

</svg>
